<svg xmlns="http://www.w3.org/2000/svg" width="537.64001" height="577.46558" viewBox="0 0 537.64001 577.46558" xmlns:xlink="http://www.w3.org/1999/xlink"><rect x="280.93012" y="-24.02696" width="4" height="352.38001" transform="translate(-37.97653 167.06159) rotate(-30.93)" fill="#000019" stroke-width="0"/><polygon points="245.05 178.57556 268.82001 186.39557 268.82001 152.17557 247.25 152.17557 245.05 178.57556" fill="#f3a3a6" stroke-width="0"/><circle cx="265.88" cy="137.95557" r="23.69" fill="#f3a3a6" stroke-width="0"/><path d="m259.85001,139.81557l3.26001,3.96001,5.91-10.34s7.54001.39,7.54001-5.21001,6.92001-5.75,6.92001-5.75c0,0,9.79001-17.1-10.48999-12.59,0,0-14.07001-9.64-21.06-1.4,0,0-21.45,10.8-15.31,29.61001l10.2,19.39,2.31-4.39s-1.39999-18.42,10.73-13.28999l-.01004.00998Z" fill="#2f2e43" stroke-width="0"/><rect x="280.32001" y="528.58551" width="20.94" height="29.71002" fill="#f3a3a6" stroke-width="0"/><path d="m298.94,575.31555c-3.57999.32001-21.5,1.73999-22.39999-2.37-.82001-3.77002.39001-7.71002.56-8.25,1.72-17.14001,2.35999-17.33002,2.75-17.44.60999-.17999,2.39001.66998,5.28,2.53003l.17999.12.04001.21002c.04999.27002,1.32999,6.56,7.39999,5.59003,4.16-.65997,5.51001-1.58002,5.94-2.03003-.35001-.15997-.79001-.44-1.10001-.91998-.45001-.70001-.53-1.59998-.23001-2.67999.78-2.84998,3.12-7.06,3.22-7.22998l.26999-.47998,23.79999,16.06,14.70001,4.20001c1.10999.32001,2,1.10999,2.45001,2.16998h0c.62,1.47998.23999,3.20001-.95999,4.28003-2.67001,2.40002-7.97,6.51001-13.54001,7.02002-1.48001.14001-3.44.19-5.64001.19-9.19,0-22.60999-.95001-22.70999-.96997l-.00998-.00018Z" fill="#2f2e43" stroke-width="0"/><rect x="197.93839" y="497.94047" width="29.70999" height="20.94" transform="translate(-320.09616 367.73012) rotate(-52.5)" fill="#f3a3a6" stroke-width="0"/><path d="m199.84,538.65558c-3.03999-1.91998-18.12-11.71002-16.33-15.51001,1.64-3.48999,5-5.89001,5.47-6.20001,11.8-12.54999,12.42-12.31,12.8-12.17001.60001.23001,1.49001,1.98001,2.64999,5.22l.07001.20001-.10001.19c-.12.23999-2.92999,6.02002,2.46001,8.94,3.7,2.01001,5.33,2.09998,5.95,2.01001-.17999-.34003-.36-.83002-.31-1.40002.07001-.83002.55-1.59003,1.45-2.27002,2.35001-1.78003,6.77-3.70001,6.96001-3.78003l.5-.21997,9.11,27.22998,9.11,12.28003c.69.92999.91,2.09998.62,3.21997h0c-.41,1.56-1.75999,2.69-3.37,2.81-3.58.28003-10.28999.31-15.00999-2.66998-1.25-.78998-2.84-1.94-4.59-3.28003-7.28999-5.59998-17.36-14.52002-17.43001-14.59003l-.01001-.00989Z" fill="#2f2e43" stroke-width="0"/><path d="m0,576.27557c0,.65997.53,1.19,1.19,1.19h535.26001c.65997,0,1.19-.53003,1.19-1.19s-.53003-1.19-1.19-1.19H1.19c-.66,0-1.19.53003-1.19,1.19Z" fill="#2f2e43" stroke-width="0"/><path d="m314.20001,315.17557l-79.06,8.07001s-11.28999,37.11002,4.84,54.86002l9.67999,50.01999-43.56,59.70001,27.42999,17.75,38.72-41.95001v70.99002l37.10999-3.22998,17.75-111.33002-12.91-104.88.00003-.00003Z" fill="#2f2e43" stroke-width="0"/><path d="m278.70001,173.18556s-6.45001-11.28999-33.88-9.68001l-6.45,14.52s-19.36,4.84-19.36,33.88,9.67999,116.17,9.67999,116.17l94.39001-5.64999-43.66-136.47-.70999-12.78-.01001.00999Z" fill="#ccc" stroke-width="0"/><path d="m183.03,47.45556c-3.34,22.1-1.81,44.89,4.34,66.36l103.82001-54.67c-1.81-2.15-3.66-4.26-5.59-6.3-15.57001-16.43-34.95999-29.15-56.24001-36.82-7.82001,3.36-15.94,7.38-24.35001,12.19-7.60001,4.34-14.56,8.75-20.94,13.19-.39,2.01-.74001,4.02-1.03999,6.04v.00999Z" fill="#6c63ff" stroke-width="0"/><path d="m241.89,17.91556c12,5.5,23.21999,12.64,33.34999,21.1,6.78,5.66,13.01999,11.94,18.66,18.72l68.60001-36.12s-47.64999-40.3-129.12-7.25c2.87,1.1,5.71001,2.28,8.5,3.56l.00999-.01Z" fill="#6c63ff" stroke-width="0"/><path d="m182.33,106.31557c-4.67-20.45-5.25-41.79-1.73-62.44-72.78,52.48-65.84,108.18-65.84,108.18l69.91-36.81c-.86-2.95-1.66-5.92-2.35001-8.92l.00999-.01001Z" fill="#6c63ff" stroke-width="0"/><path id="uuid-f061f442-31e1-4870-a12b-4f94f157692b-299" d="m364.5,276.20557c6.17001,2.84,9.62,8.42001,7.70999,12.47s-8.47,5.03-14.64001,2.20001c-2.48001-1.10001-4.64999-2.79001-6.32001-4.95001l-25.98999-12.35999,6.39999-12.45999,24.95001,13.51001c2.73999-.12,5.45999.42001,7.91,1.59h0l-.01999-.00003Z" fill="#f3a3a6" stroke-width="0"/><path d="m348.39999,285.31555l-62.73999-20.48999-.07001-.07001-47.79001-44.22c-7.32001-6.77-8.42-17.95999-2.55-26.03,3.59-4.94,9.14999-7.89,15.25-8.10001,6.09999-.21001,11.84999,2.36,15.77,7.03999l35.88998,42.86,51.69,33.58002-5.45001,15.42999h.00003Z" fill="#ccc" stroke-width="0"/></svg>